# xmcd
#
# Track frame offsets:
#	150
#	16377
#	30017
#	47557
#	65975
#	82437
#	99002
#	111232
#	132802
#	151322
#	165575
#	180150
#	193102
#	208932
#
# Disc length: 2969
#
# Revision: 1
# Processed by: cddbd v1.5.1PL0 Copyright (c) Steve Scherf et al.
# Submitted via: VisiTrax 2.9.3.171 - For more info visit www.synapsa.com
# Normalized: r0:DSETVAR1
#
DISCID=b30b970e
DTITLE=Various Artist - Mr Music Country 9-98
DYEAR=1900
DGENRE=
TTITLE0=Tanya Tucker - I Don't Believe That's How You Feel
TTITLE1=Leon Russel with Willie Nelson - Okie From Muskogee
TTITLE2=Billy Dean - Misery And Gin
TTITLE3=Suzy Bogguss - Take Me Back
TTITLE4=Eddy Raven with Doug Kershaw - Cajun Song
TTITLE5=Willie Nelson - Healing Hands Of Time
TTITLE6=Emilio - Studk On Your Love
TTITLE7=Waylon Jennings - Easy Money
TTITLE8=The Delevantes - John Wayne Lives In Hoboken
TTITLE9=Trace Adkins - The Rest Of Mine
TTITLE10=Lisa Brokop - Language Of Love
TTITLE11=Dean Miller - Wake Up And Smell The Whiskey
TTITLE12=Bryan Austin - Susannah
TTITLE13=Asleep At The Whell with Merle Haggard - I Wonder If You Feel The Way I Do
EXTD=
EXTT0=
EXTT1=
EXTT2=
EXTT3=
EXTT4=
EXTT5=
EXTT6=
EXTT7=
EXTT8=
EXTT9=
EXTT10=
EXTT11=
EXTT12=
EXTT13=
PLAYORDER=
